<?xml version="1.0" encoding="utf-8"?>
<!-- Generator: Adobe Illustrator 27.8.1, SVG Export Plug-In . SVG Version: 6.00 Build 0)  -->
<svg version="1.1" id="Layer_1" xmlns="http://www.w3.org/2000/svg" xmlns:xlink="http://www.w3.org/1999/xlink" x="0px" y="0px"
	 viewBox="0 0 800 800" style="enable-background:new 0 0 800 800;" xml:space="preserve">
<style type="text/css">
	.st0{fill:#FFFFFF;}
</style>
<path d="M427.4,216.5c-1-38.7-0.7-77.9,1.1-89.1c1.7-10.6,6.9-27,8.8-37.5c2.2-12.2,2.2-12.2-6.9-24.8c-13-17.9-41.4-32.9-61.2-5
	v61.5v93.3v113.8v155.5c0,0,4.3,124.6,7,166.1c1,15.8,4.2,47.5,7.6,63.1c2.9,13.4,11.3,42.1,11.3,42.1s32.6-21.5,54.9-97.9
	c17.9-61.6,18.2-176.6,18.2-176.6V353v-20c0,0-31.2-8-39.3-14.6c-5.6-4.5-7.9-20-6.7-27.1"/>
<circle class="st0" cx="397.8" cy="174.4" r="8.6"/>
<circle class="st0" cx="397.8" cy="263.2" r="8.6"/>
<circle class="st0" cx="397.8" cy="89.5" r="8.6"/>
</svg>
